<svg width="28" height="28" viewBox="0 0 28 28" fill="none" xmlns="http://www.w3.org/2000/svg">
<path d="M11.9 20.3L22.475 9.725L20.375 7.625L11.9 16.1L7.625 11.825L5.525 13.925L11.9 20.3ZM3.5 27.5C2.675 27.5 1.969 27.2065 1.382 26.6195C0.795 26.0325 0.501 25.326 0.5 24.5V3.5C0.5 2.675 0.794 1.969 1.382 1.382C1.97 0.795 2.676 0.501 3.5 0.5H24.5C25.325 0.5 26.0315 0.794 26.6195 1.382C27.2075 1.97 27.501 2.676 27.5 3.5V24.5C27.5 25.325 27.2065 26.0315 26.6195 26.6195C26.0325 27.2075 25.326 27.501 24.5 27.5H3.5ZM3.5 24.5H24.5V3.5H3.5V24.5Z" fill="#EDB046"/>
</svg>
